<svg xmlns="http://www.w3.org/2000/svg" viewBox="0 0 168.16 175.61"><defs><style>.cls-1{fill:#fff;}</style></defs><g id="Layer_2" data-name="Layer 2"><g id="Layer_1-2" data-name="Layer 1"><path class="cls-1" d="M102,132.43c-5.32,13.64-10.86,27.21-16.37,40.78-.22.55-.82.94-2.13,2.4l-33-81.69c-1.5,2.84-2.42,4.27-3.06,5.83-2.77,6.78-5.37,13.63-8.28,20.35-.61,1.43-2.25,3.4-3.45,3.43-11.45.26-22.9.16-35.74.16C16.76,82.07,33,41.74,49.8,0c1.45,2.53,2.27,3.64,2.78,4.88Q77.16,66,101.65,127.25A7.82,7.82,0,0,1,102,132.43Z"/><path class="cls-1" d="M168.16,123.72h-17c-5.66,0-11.33-.1-17,0-2.65.06-4.15-.65-5.22-3.34-9.49-24-19.17-47.89-28.69-71.86a7.08,7.08,0,0,1-.28-4.72c5.4-13.79,11-27.5,16.58-41.22.16-.41.69-.67,2.1-2Z"/></g></g></svg>